<svg width="48" height="48" viewBox="0 0 48 48" fill="none" xmlns="http://www.w3.org/2000/svg">
<path fill-rule="evenodd" clip-rule="evenodd" d="M24 43.2C29.0922 43.2 33.9758 41.1771 37.5765 37.5764C41.1772 33.9757 43.2 29.0921 43.2 24C43.2 18.9078 41.1772 14.0242 37.5765 10.4235C33.9758 6.82284 29.0922 4.79999 24 4.79999C18.9079 4.79999 14.0243 6.82284 10.4236 10.4235C6.8229 14.0242 4.80005 18.9078 4.80005 24C4.80005 29.0921 6.8229 33.9757 10.4236 37.5764C14.0243 41.1771 18.9079 43.2 24 43.2ZM25.6968 18.4968C26.134 18.0441 26.3759 17.4379 26.3705 16.8086C26.365 16.1794 26.1126 15.5774 25.6676 15.1324C25.2226 14.6874 24.6207 14.435 23.9914 14.4296C23.3621 14.4241 22.7559 14.666 22.3032 15.1032L15.1032 22.3032C14.6533 22.7533 14.4006 23.3636 14.4006 24C14.4006 24.6364 14.6533 25.2467 15.1032 25.6968L22.3032 32.8968C22.7559 33.334 23.3621 33.5759 23.9914 33.5704C24.6207 33.5649 25.2226 33.3125 25.6676 32.8675C26.1126 32.4226 26.365 31.8206 26.3705 31.1913C26.3759 30.5621 26.134 29.9558 25.6968 29.5032L22.5936 26.4H31.2C31.8366 26.4 32.447 26.1471 32.8971 25.697C33.3472 25.247 33.6 24.6365 33.6 24C33.6 23.3635 33.3472 22.753 32.8971 22.3029C32.447 21.8528 31.8366 21.6 31.2 21.6H22.5936L25.6968 18.4968Z" fill="#3F3F46"/>
</svg>
